<svg xmlns="http://www.w3.org/2000/svg" width="54" height="12" viewBox="0 0 54 12" xmlns:xlink="http://www.w3.org/1999/xlink"><defs><circle id="a" cx="6" cy="6" r="6"/></defs><g fill="none" fill-rule="evenodd"><path fill="#D9222A" d="M11.935 10.806c0 .66-.535 1.194-1.193 1.194h-9.55C.535 12 0 11.465 0 10.806V1.257C0 .6.534.065 1.193.065h9.55c.657 0 1.192.534 1.192 1.192v9.55"/><path fill="#FFF" d="M5.967 10.455c-2.23 0-3.228-1.776-3.228-3.538 0-2.48 1.72-5.306 3.228-5.306 1.51 0 3.23 2.826 3.23 5.306 0 1.762-.998 3.538-3.23 3.538"/><g transform="translate(18)"><mask id="b" fill="#fff"><use xlink:href="#a"/></mask><use fill="#000" xlink:href="#a"/><path fill="#FFD61C" mask="url(#b)" d="M0 4.125h12V1.5H0v2.625zM0 9.75h12V7.125H0V9.75z"/></g><path d="M46.407 8.056v1.42h2.014v-1.48l-2.014.06zm0-2.493v1.443l1.316-.071V5.443l-1.316.12zM44.783 3.32v6.156h1.373V3.129l-1.373.19zm1.624-.239v1.42l2.014-.227v-1.48l-2.014.287zm4.955 2.374c-.607.74-2.22 2.267-2.22 2.267l2.311-.084c1.408-1.431 1.922-2.302 2.014-3.388a1.941 1.941 0 0 0-.55-1.527c-.434-.43-1.075-.608-1.773-.5v1.574c.286-.024.515.083.618.31.16.346-.011.871-.4 1.348zm-.492-1.598v-1.6c-1.362.3-2.025 1.349-1.945 3.055l1.453-.143c-.069-.955.217-1.181.492-1.312zm2.677 3.984l-4.691.143.011 1.492h4.68V7.84zm-16.67-2.076l-1.007.108v3.603h1.006v-3.71zm3.981-.62v-1.24l-1.522.214v1.193l1.522-.167zm0 4.33v-1.24l-1.522.048v1.193h1.522zm.4-5.63v5.63h1.19v-5.81l-1.19.18zm3.159 5.63V8.129l-1.74.047v1.3h1.74zM35 4.764l.011 1.05 2.712-.31V4.358L35 4.763zm4.336 1.432v1.217l.996-.06v-1.24l-.996.083zM38.101 4.31v5.166h1.04V4.155l-1.04.155z" fill="#1A1918"/></g></svg>